# xmcd
#
# Track frame offsets:
#	150
#	23364
#	37466
#	52857
#	62524
#	80709
#	98240
#	113812
#	126596
#	142788
#	158374
#	177907
#	193497
#	212186
#	223778
#	240211
#	260169
#
# Disc length: 3657 seconds
#
# Revision: 1
# Processed by: cddbd v1.5.2PL0 Copyright (c) Steve Scherf et al.
# Submitted via: audiograbber 1.83.01
#
DISCID=f30e4711
DTITLE=The Zazou Cowboys - The Zazou Cowboys Song Folio
DYEAR=2012
DGENRE=
TTITLE0=Hot Wing Stomp
TTITLE1=Do You Ever Think of Me ('Cause I Never Think of You Either)
TTITLE2=Lonesome Flame
TTITLE3=I Could be Your Cowboy
TTITLE4=I'm That Fool
TTITLE5=Queensize Matrimony Blues
TTITLE6=She Sets a Place for Two
TTITLE7=Loud Mouth
TTITLE8=Happy Trails
TTITLE9=Rangin'
TTITLE10=Daydream in F
TTITLE11=Dedicated to You
TTITLE12=Heartstring Rhumba
TTITLE13=Fairweather Lover
TTITLE14=Southward Bound
TTITLE15=Little Flower
TTITLE16=Red's Boogie
EXTD=
EXTT0=
EXTT1=
EXTT2=
EXTT3=
EXTT4=
EXTT5=
EXTT6=
EXTT7=
EXTT8=
EXTT9=
EXTT10=
EXTT11=
EXTT12=
EXTT13=
EXTT14=
EXTT15=
EXTT16=
PLAYORDER=
